<svg width="300" height="400" viewBox="0 0 300 400" fill="none" xmlns="http://www.w3.org/2000/svg">
    <rect width="300" height="400" fill="#FFFFFF"/>
    <rect x="20" y="20" width="260" height="40" fill="#2C3E50"/>
    <rect x="20" y="70" width="260" height="2" fill="#34495E"/>
    <rect x="20" y="90" width="260" height="15" fill="#BDC3C7"/>
    <rect x="20" y="115" width="260" height="15" fill="#BDC3C7"/>
    <rect x="20" y="140" width="260" height="15" fill="#BDC3C7"/>
    <rect x="20" y="175" width="260" height="2" fill="#34495E"/>
    <rect x="20" y="187" width="260" height="15" fill="#BDC3C7"/>
    <rect x="20" y="212" width="260" height="15" fill="#BDC3C7"/>
    <rect x="20" y="237" width="260" height="15" fill="#BDC3C7"/>
    <rect x="20" y="272" width="260" height="2" fill="#34495E"/>
    <rect x="20" y="284" width="120" height="15" fill="#BDC3C7"/>
    <rect x="20" y="309" width="120" height="15" fill="#BDC3C7"/>
    <rect x="160" y="284" width="120" height="15" fill="#BDC3C7"/>
    <rect x="160" y="309" width="120" height="15" fill="#BDC3C7"/>
    <rect x="20" y="344" width="260" height="2" fill="#34495E"/>
    <rect x="20" y="356" width="260" height="15" fill="#BDC3C7"/>
  </svg>